<?xml version="1.0" encoding="utf-8"?>
<!-- Generator: Adobe Illustrator 26.3.1, SVG Export Plug-In . SVG Version: 6.00 Build 0)  -->
<svg version="1.1" id="Layer_1" xmlns="http://www.w3.org/2000/svg" xmlns:xlink="http://www.w3.org/1999/xlink" x="0px" y="0px"
	 viewBox="0 0 2200 2000" style="enable-background:new 0 0 2200 2000;" xml:space="preserve">
<g>
	<path d="M1448.73,1243.11c-3.74-1.33-7.61-2.85-11.51-4.52l-0.25-0.11l-0.25-0.14c-7.76-4.42-15.19-9.9-22.1-16.26
		c-6.78-6.22-12.99-12.71-18.41-19.23c-3.44-4-6.34-8.21-8.62-12.5c-2.09-3.9-3.99-7.57-5.67-10.92l-0.1-0.21L1214.97,747.8h-44.18
		l-77.91,232.47l-11.3-29.22l-78.61-203.25h-44.18l-144.45,430.99c-1.16,3.45-2.73,7.17-4.67,11.05c-2,3.98-4.42,7.97-7.2,11.86
		c-5.52,7.73-12.23,15.14-19.94,22.02c-7.78,6.95-15.68,12.45-23.5,16.35c-3.51,1.75-7.08,3.09-10.62,3.98
		c-3.58,0.89-6.95,1.35-10.01,1.35h-7v6.8h158v-6.98c-2.85-0.2-5.66-0.58-8.38-1.12c-3.81-0.76-7.39-1.43-10.65-1.97l-0.46-0.08
		l-0.44-0.16c-11.14-4.1-19.65-10.7-25.29-19.62c-5.56-8.76-8.38-18.27-8.38-28.28v-4.39c0-1.65,0.27-3.39,0.81-5.2
		c0.03-1.68,0.2-3.19,0.48-4.58c0.31-1.55,0.77-3.24,1.37-5.03l38.51-113.88h166.85l-7.92-20.21l-3.04-7.79H886.81l77.64-230.35
		l89.78,230.09l0.29,0.75l10.5,26.8l0.57,1.47l-39.25,117.12c-1.16,3.45-2.73,7.17-4.67,11.05c-2,3.98-4.42,7.97-7.2,11.86
		c-5.52,7.73-12.23,15.14-19.94,22.02c-7.78,6.95-15.68,12.45-23.5,16.35c-3.51,1.75-7.08,3.09-10.62,3.98
		c-3.58,0.89-6.95,1.35-10.01,1.35h-7v6.8H1077h24.4h155.2v-6.8h-7c-4.32,0-8.65-0.78-12.87-2.29c-3.74-1.33-7.61-2.85-11.51-4.52
		l-0.25-0.11l-0.25-0.14c-7.76-4.42-15.19-9.9-22.1-16.26c-6.78-6.22-12.99-12.71-18.41-19.23c-3.44-4-6.34-8.21-8.62-12.5
		c-2.09-3.9-3.99-7.57-5.67-10.92l-0.1-0.21l-45.76-118.31h153.24l53.81,138.6l0.04,0.13c0.6,1.82,1.06,3.68,1.38,5.55
		c0.31,1.88,0.47,3.77,0.47,5.61v2.8c0,1.25-0.27,2.55-0.83,3.93c-0.13,2.39-0.66,4.69-1.57,6.83c-1,2.32-2.47,4.5-4.38,6.47
		c-3.12,4.25-7.42,7.75-12.79,10.44c-5.47,2.74-11.34,4.13-17.43,4.13h-7v6.8h179.6v-6.8h-7
		C1457.28,1245.4,1452.95,1244.62,1448.73,1243.11z M1120.29,1032.91l-3.41,9.42l-0.1-0.25l-8.66,24.63l-18.89,55.86l29.88,76.94
		l0.04,0.13c0.6,1.82,1.06,3.68,1.38,5.55c0.31,1.88,0.47,3.77,0.47,5.61v2.8c0,1.25-0.27,2.55-0.83,3.93
		c-0.13,2.39-0.66,4.69-1.57,6.83c-0.29,0.66-0.61,1.31-0.98,1.95c-0.9,1.6-2.04,3.11-3.4,4.52c-3.12,4.25-7.42,7.75-12.79,10.44
		c-2.53,1.27-5.15,2.25-7.84,2.93c-0.19-0.03-0.38-0.06-0.57-0.1c-3.81-0.76-7.39-1.43-10.65-1.97l-0.46-0.08l-0.44-0.16
		c-11.14-4.1-19.65-10.7-25.29-19.62c-5.56-8.76-8.38-18.27-8.38-28.28v-4.39c0-1.65,0.27-3.39,0.81-5.2
		c0.03-1.68,0.2-3.19,0.48-4.58c0.31-1.55,0.77-3.24,1.37-5.03l27.49-81.29l11.26-33.3l9.43-26.8l6.89-20.43l70.92-210.41
		l89.88,230.35H1120.29z"/>
</g>
</svg>
